# xmcd
#
# Track frame offsets:
#	150
#	16914
#	34551
#	52571
#	83158
#	100728
#	118730
#	143617
#	159133
#	185052
#
# Disc length: 2647 seconds
#
# Revision: 0
# Processed by: cddbd v1.5.2PL0 Copyright (c) Steve Scherf et al.
# Submitted via: dBpowerAMP V4.0
#
DISCID=6a0a550a
DTITLE=Jorge Medina - En La tienda del Cielo
DYEAR=1900
DGENRE=Latin
TTITLE0=La tienda del cielo
TTITLE1=Un nino lloraba
TTITLE2=Con ojos de lechon asao
TTITLE3=Encontro las otras seis
TTITLE4=Que es la Navidad
TTITLE5=No existen barreras
TTITLE6=Tocando Y Bailando
TTITLE7=No me mires mal
TTITLE8=Cristo en la Navidad
TTITLE9=Ando Sonambulo
EXTD=Jorge Medina "En la Tienda del Cielo" Puerto Rican typical music
EXTT0=
EXTT1=
EXTT2=
EXTT3=
EXTT4=
EXTT5=
EXTT6=
EXTT7=
EXTT8=
EXTT9=
PLAYORDER=
